# xmcd
#
# Track frame offsets:
#	150
#	16373
#	28786
#	40014
#	56922
#	69284
#	84791
#	97192
#	114446
#	126608
#	139273
#	153452
#
# Disc length: 2200 seconds
#
# Revision: 0
# Processed by: cddbd v1.5.2PL0 Copyright (c) Steve Scherf et al.
# Submitted via: EasyCDDAExtractor 10.2.0.1
#
DISCID=a208960c
DTITLE=Carroll Roberson - The Best Of Carroll Roberson
DYEAR=1900
DGENRE=Gospel
TTITLE0=Wilt Thou Be Made whole
TTITLE1=Take Away Jesus
TTITLE2=She Found Jesus Alive
TTITLE3=A Wonderful Life
TTITLE4=Just Go By
TTITLE5=All The Glory
TTITLE6=The Old Landmark
TTITLE7=Through It All
TTITLE8=He's Still God
TTITLE9=Jesus Will Be The Light
TTITLE10=I Want The People To See Jesus in Me
TTITLE11=I Will Follow Him
EXTD=
EXTT0=
EXTT1=
EXTT2=
EXTT3=
EXTT4=
EXTT5=
EXTT6=
EXTT7=
EXTT8=
EXTT9=
EXTT10=
EXTT11=
PLAYORDER=
